# xmcd
#
# Track frame offsets: 
#        150
#        19875
#        39825
#        53625
#        68250
#        88500
#        120450
#        143625
#        166125
#        184550
#        223275
#        233325
#
# Disc length: 3388 seconds
#
# Revision: 7
# Processed by: cddbd v1.5.2PL0 Copyright (c) Steve Scherf et al.
# Submitted via: ExactAudioCopy v0.99pb5
#
DISCID=8b0d3a0c
DTITLE=Gidon Kremer - J.S Bach - Sonatas for Solo Violin No.BWV 1001, 
DTITLE=No.BWV 1003, No.BWV 1005
DYEAR=1980
DGENRE=Classique
TTITLE0=Sonata for solo violin N°1 BWV.1001 in G minor - I. Adagio
TTITLE1=Sonata for solo violin N°1 BWV.1001 in G minor - II. Fuga (All
TTITLE1=egro)
TTITLE2=Sonata for solo violin N°1 BWV.1001 in G minor - III. Sicilian
TTITLE2=a
TTITLE3=Sonata for solo violin N°1 BWV.1001 in G minor - IV. Presto
TTITLE4=Sonata for solo violin N°2 BWV 1003 in A minor - I. Grave
TTITLE5=Sonata for solo violin N°2 BWV 1003 in A minor - II. Fuga
TTITLE6=Sonata for solo violin N°2 BWV 1003 in A minor - III. Andante
TTITLE7=Sonata for solo violin N°2 BWV 1003 in A minor - IV. Allegro
TTITLE8=Sonata for solo violin N°3 BWV 1005 in C major - I. Adagio
TTITLE9=Sonata for solo violin N°3 BWV 1005 in C major - II. Fuga
TTITLE10=Sonata for solo violin N°3 BWV 1005 in C major - III. Largo
TTITLE11=Sonata for solo violin N°3 BWV 1005 in C major - IV. Allegro 
TTITLE11=assai
EXTD=YEAR: 1980
EXTT0=
EXTT1=
EXTT2=
EXTT3=
EXTT4=
EXTT5=
EXTT6=
EXTT7=
EXTT8=
EXTT9=
EXTT10=
EXTT11=
PLAYORDER=
